<mxfile host="app.diagrams.net" agent="Mozilla/5.0 (Windows NT 10.0; Win64; x64) AppleWebKit/537.36 (KHTML, like Gecko) Chrome/137.0.0.0 Safari/537.36" version="27.2.0" pages="2">
  <diagram name="Page-1" id="5f0bae14-7c28-e335-631c-24af17079c00">
    <mxGraphModel dx="821" dy="964" grid="1" gridSize="10" guides="1" tooltips="1" connect="1" arrows="1" fold="1" page="1" pageScale="1" pageWidth="1100" pageHeight="850" background="none" math="0" shadow="0">
      <root>
        <mxCell id="0" />
        <mxCell id="1" parent="0" />
        <mxCell id="39150e848f15840c-1" value="Dispositivos Usuarios Finales" style="verticalAlign=top;align=left;spacingTop=8;spacingLeft=2;spacingRight=12;shape=cube;size=10;direction=south;fontStyle=4;html=1;rounded=0;shadow=0;comic=0;labelBackgroundColor=none;strokeWidth=1;fontFamily=Verdana;fontSize=12" parent="1" vertex="1">
          <mxGeometry x="120" y="70" width="290" height="150" as="geometry" />
        </mxCell>
        <mxCell id="39150e848f15840c-2" value="Infraestructura en la Nube" style="verticalAlign=top;align=left;spacingTop=8;spacingLeft=2;spacingRight=12;shape=cube;size=10;direction=south;fontStyle=4;html=1;rounded=0;shadow=0;comic=0;labelBackgroundColor=none;strokeWidth=1;fontFamily=Verdana;fontSize=12" parent="1" vertex="1">
          <mxGeometry x="540" y="20" width="540" height="730" as="geometry" />
        </mxCell>
        <mxCell id="39150e848f15840c-3" value="Capa de Presentación" style="verticalAlign=top;align=left;spacingTop=8;spacingLeft=2;spacingRight=12;shape=cube;size=10;direction=south;fontStyle=4;html=1;rounded=0;shadow=0;comic=0;labelBackgroundColor=none;strokeWidth=1;fontFamily=Verdana;fontSize=12" parent="1" vertex="1">
          <mxGeometry x="130" y="325" width="280" height="165" as="geometry" />
        </mxCell>
        <mxCell id="39150e848f15840c-5" value="PC / Smartphone" style="shape=component;align=left;spacingLeft=36;rounded=0;shadow=0;comic=0;labelBackgroundColor=none;strokeWidth=1;fontFamily=Verdana;fontSize=12;html=1;" parent="1" vertex="1">
          <mxGeometry x="185" y="135" width="160" height="50" as="geometry" />
        </mxCell>
        <mxCell id="39150e848f15840c-7" value="Aplicación Web" style="shape=component;align=left;spacingLeft=36;rounded=0;shadow=0;comic=0;labelBackgroundColor=none;strokeWidth=1;fontFamily=Verdana;fontSize=12;html=1;" parent="1" vertex="1">
          <mxGeometry x="250" y="425" width="140" height="40" as="geometry" />
        </mxCell>
        <mxCell id="39150e848f15840c-10" value="Aplicación Móvil" style="shape=component;align=left;spacingLeft=36;rounded=0;shadow=0;comic=0;labelBackgroundColor=none;strokeWidth=1;fontFamily=Verdana;fontSize=12;html=1;" parent="1" vertex="1">
          <mxGeometry x="140" y="380" width="140" height="35" as="geometry" />
        </mxCell>
        <mxCell id="MDSFPO8No72CG0OgeMIz-1" value="Seguridad y Almacenamiento" style="verticalAlign=top;align=left;spacingTop=8;spacingLeft=2;spacingRight=12;shape=cube;size=10;direction=south;fontStyle=4;html=1;rounded=0;shadow=0;comic=0;labelBackgroundColor=none;strokeWidth=1;fontFamily=Verdana;fontSize=12" parent="1" vertex="1">
          <mxGeometry x="560" y="60" width="420" height="100" as="geometry" />
        </mxCell>
        <mxCell id="MDSFPO8No72CG0OgeMIz-2" value="Balanceador de Carga" style="verticalAlign=top;align=left;spacingTop=8;spacingLeft=2;spacingRight=12;shape=cube;size=10;direction=south;fontStyle=4;html=1;rounded=0;shadow=0;comic=0;labelBackgroundColor=none;strokeWidth=1;fontFamily=Verdana;fontSize=12" parent="1" vertex="1">
          <mxGeometry x="800" y="200" width="260" height="95" as="geometry" />
        </mxCell>
        <mxCell id="MDSFPO8No72CG0OgeMIz-3" value="Servidores de Aplicación" style="verticalAlign=top;align=left;spacingTop=8;spacingLeft=2;spacingRight=12;shape=cube;size=10;direction=south;fontStyle=4;html=1;rounded=0;shadow=0;comic=0;labelBackgroundColor=none;strokeWidth=1;fontFamily=Verdana;fontSize=12" parent="1" vertex="1">
          <mxGeometry x="660" y="360" width="260" height="90" as="geometry" />
        </mxCell>
        <mxCell id="MDSFPO8No72CG0OgeMIz-4" value="Base de Datos" style="verticalAlign=top;align=left;spacingTop=8;spacingLeft=2;spacingRight=12;shape=cube;size=10;direction=south;fontStyle=4;html=1;rounded=0;shadow=0;comic=0;labelBackgroundColor=none;strokeWidth=1;fontFamily=Verdana;fontSize=12" parent="1" vertex="1">
          <mxGeometry x="565" y="498.75" width="260" height="92.5" as="geometry" />
        </mxCell>
        <mxCell id="MDSFPO8No72CG0OgeMIz-5" value="Servicios Externos" style="verticalAlign=top;align=left;spacingTop=8;spacingLeft=2;spacingRight=12;shape=cube;size=10;direction=south;fontStyle=4;html=1;rounded=0;shadow=0;comic=0;labelBackgroundColor=none;strokeWidth=1;fontFamily=Verdana;fontSize=12" parent="1" vertex="1">
          <mxGeometry x="792.5" y="610" width="260" height="125" as="geometry" />
        </mxCell>
        <mxCell id="SX_inKQdEP1rT_QkMfv4-1" value="Firewalls / SLL" style="shape=component;align=left;spacingLeft=36;rounded=0;shadow=0;comic=0;labelBackgroundColor=none;strokeWidth=1;fontFamily=Verdana;fontSize=12;html=1;" vertex="1" parent="1">
          <mxGeometry x="565" y="100" width="140" height="30" as="geometry" />
        </mxCell>
        <mxCell id="SX_inKQdEP1rT_QkMfv4-2" value="Almacenamiento(S3, Blob)" style="shape=component;align=left;spacingLeft=36;rounded=0;shadow=0;comic=0;labelBackgroundColor=none;strokeWidth=1;fontFamily=Verdana;fontSize=12;html=1;" vertex="1" parent="1">
          <mxGeometry x="750" y="102.5" width="205" height="30" as="geometry" />
        </mxCell>
        <mxCell id="SX_inKQdEP1rT_QkMfv4-15" style="edgeStyle=none;curved=1;rounded=0;orthogonalLoop=1;jettySize=auto;html=1;exitX=0.5;exitY=1;exitDx=0;exitDy=0;entryX=0.75;entryY=0;entryDx=0;entryDy=0;fontSize=12;startSize=8;endSize=8;" edge="1" parent="1" source="SX_inKQdEP1rT_QkMfv4-3" target="SX_inKQdEP1rT_QkMfv4-4">
          <mxGeometry relative="1" as="geometry" />
        </mxCell>
        <mxCell id="SX_inKQdEP1rT_QkMfv4-3" value="Load Balancer" style="shape=component;align=left;spacingLeft=36;rounded=0;shadow=0;comic=0;labelBackgroundColor=none;strokeWidth=1;fontFamily=Verdana;fontSize=12;html=1;" vertex="1" parent="1">
          <mxGeometry x="870" y="250" width="140" height="30" as="geometry" />
        </mxCell>
        <mxCell id="SX_inKQdEP1rT_QkMfv4-12" style="edgeStyle=none;curved=1;rounded=0;orthogonalLoop=1;jettySize=auto;html=1;exitX=0.5;exitY=1;exitDx=0;exitDy=0;entryX=0.5;entryY=0;entryDx=0;entryDy=0;fontSize=12;startSize=8;endSize=8;" edge="1" parent="1" source="SX_inKQdEP1rT_QkMfv4-4" target="SX_inKQdEP1rT_QkMfv4-5">
          <mxGeometry relative="1" as="geometry" />
        </mxCell>
        <mxCell id="SX_inKQdEP1rT_QkMfv4-13" style="edgeStyle=none;curved=1;rounded=0;orthogonalLoop=1;jettySize=auto;html=1;exitX=1;exitY=0.5;exitDx=0;exitDy=0;entryX=0.75;entryY=0;entryDx=0;entryDy=0;fontSize=12;startSize=8;endSize=8;" edge="1" parent="1" source="SX_inKQdEP1rT_QkMfv4-4" target="SX_inKQdEP1rT_QkMfv4-6">
          <mxGeometry relative="1" as="geometry">
            <Array as="points">
              <mxPoint x="950" y="540" />
            </Array>
          </mxGeometry>
        </mxCell>
        <mxCell id="SX_inKQdEP1rT_QkMfv4-14" style="edgeStyle=none;curved=1;rounded=0;orthogonalLoop=1;jettySize=auto;html=1;exitX=1;exitY=0.5;exitDx=0;exitDy=0;entryX=0.75;entryY=0;entryDx=0;entryDy=0;fontSize=12;startSize=8;endSize=8;" edge="1" parent="1" source="SX_inKQdEP1rT_QkMfv4-4" target="SX_inKQdEP1rT_QkMfv4-7">
          <mxGeometry relative="1" as="geometry">
            <Array as="points">
              <mxPoint x="1040" y="500" />
            </Array>
          </mxGeometry>
        </mxCell>
        <mxCell id="SX_inKQdEP1rT_QkMfv4-17" style="edgeStyle=none;curved=1;rounded=0;orthogonalLoop=1;jettySize=auto;html=1;exitX=0.5;exitY=0;exitDx=0;exitDy=0;entryX=0.5;entryY=1;entryDx=0;entryDy=0;fontSize=12;startSize=8;endSize=8;" edge="1" parent="1" source="SX_inKQdEP1rT_QkMfv4-4" target="SX_inKQdEP1rT_QkMfv4-1">
          <mxGeometry relative="1" as="geometry">
            <Array as="points">
              <mxPoint x="740" y="260" />
            </Array>
          </mxGeometry>
        </mxCell>
        <mxCell id="SX_inKQdEP1rT_QkMfv4-4" value="API Backend" style="shape=component;align=left;spacingLeft=36;rounded=0;shadow=0;comic=0;labelBackgroundColor=none;strokeWidth=1;fontFamily=Verdana;fontSize=12;html=1;" vertex="1" parent="1">
          <mxGeometry x="720" y="400" width="140" height="30" as="geometry" />
        </mxCell>
        <mxCell id="SX_inKQdEP1rT_QkMfv4-5" value="Base de Datos SQL" style="shape=component;align=left;spacingLeft=36;rounded=0;shadow=0;comic=0;labelBackgroundColor=none;strokeWidth=1;fontFamily=Verdana;fontSize=12;html=1;" vertex="1" parent="1">
          <mxGeometry x="615" y="540" width="160" height="30" as="geometry" />
        </mxCell>
        <mxCell id="SX_inKQdEP1rT_QkMfv4-6" value="API Transporte" style="shape=component;align=left;spacingLeft=36;rounded=0;shadow=0;comic=0;labelBackgroundColor=none;strokeWidth=1;fontFamily=Verdana;fontSize=12;html=1;" vertex="1" parent="1">
          <mxGeometry x="810" y="650" width="130" height="30" as="geometry" />
        </mxCell>
        <mxCell id="SX_inKQdEP1rT_QkMfv4-7" value="API Financieras" style="shape=component;align=left;spacingLeft=36;rounded=0;shadow=0;comic=0;labelBackgroundColor=none;strokeWidth=1;fontFamily=Verdana;fontSize=12;html=1;" vertex="1" parent="1">
          <mxGeometry x="900" y="690" width="130" height="30" as="geometry" />
        </mxCell>
        <mxCell id="SX_inKQdEP1rT_QkMfv4-8" style="edgeStyle=none;curved=1;rounded=0;orthogonalLoop=1;jettySize=auto;html=1;exitX=0;exitY=0;exitDx=150;exitDy=150;exitPerimeter=0;entryX=0.5;entryY=0;entryDx=0;entryDy=0;fontSize=12;startSize=8;endSize=8;" edge="1" parent="1" source="39150e848f15840c-1" target="39150e848f15840c-10">
          <mxGeometry relative="1" as="geometry">
            <Array as="points">
              <mxPoint y="370" />
            </Array>
          </mxGeometry>
        </mxCell>
        <mxCell id="SX_inKQdEP1rT_QkMfv4-9" style="edgeStyle=none;curved=1;rounded=0;orthogonalLoop=1;jettySize=auto;html=1;exitX=0;exitY=0;exitDx=150;exitDy=150;exitPerimeter=0;entryX=0.5;entryY=0;entryDx=0;entryDy=0;fontSize=12;startSize=8;endSize=8;" edge="1" parent="1" source="39150e848f15840c-1" target="39150e848f15840c-7">
          <mxGeometry relative="1" as="geometry">
            <Array as="points">
              <mxPoint x="340" y="320" />
            </Array>
          </mxGeometry>
        </mxCell>
        <mxCell id="SX_inKQdEP1rT_QkMfv4-10" style="edgeStyle=none;curved=1;rounded=0;orthogonalLoop=1;jettySize=auto;html=1;exitX=0.5;exitY=1;exitDx=0;exitDy=0;entryX=0;entryY=0.7;entryDx=0;entryDy=0;fontSize=12;startSize=8;endSize=8;" edge="1" parent="1">
          <mxGeometry relative="1" as="geometry">
            <mxPoint x="220" y="415" as="sourcePoint" />
            <mxPoint x="730" y="421" as="targetPoint" />
            <Array as="points">
              <mxPoint x="230" y="610" />
            </Array>
          </mxGeometry>
        </mxCell>
        <mxCell id="SX_inKQdEP1rT_QkMfv4-11" style="edgeStyle=none;curved=1;rounded=0;orthogonalLoop=1;jettySize=auto;html=1;exitX=0.5;exitY=1;exitDx=0;exitDy=0;entryX=0;entryY=0.3;entryDx=0;entryDy=0;fontSize=12;startSize=8;endSize=8;" edge="1" parent="1" source="39150e848f15840c-7" target="SX_inKQdEP1rT_QkMfv4-4">
          <mxGeometry relative="1" as="geometry">
            <Array as="points">
              <mxPoint x="500" y="500" />
            </Array>
          </mxGeometry>
        </mxCell>
        <mxCell id="SX_inKQdEP1rT_QkMfv4-18" value="" style="endArrow=classic;startArrow=classic;html=1;rounded=0;fontSize=12;startSize=8;endSize=8;curved=1;exitX=0.5;exitY=0;exitDx=0;exitDy=0;entryX=0.5;entryY=1;entryDx=0;entryDy=0;" edge="1" parent="1" source="SX_inKQdEP1rT_QkMfv4-4" target="SX_inKQdEP1rT_QkMfv4-2">
          <mxGeometry width="50" height="50" relative="1" as="geometry">
            <mxPoint x="810" y="480" as="sourcePoint" />
            <mxPoint x="860" y="430" as="targetPoint" />
            <Array as="points">
              <mxPoint x="740" y="200" />
            </Array>
          </mxGeometry>
        </mxCell>
        <mxCell id="SX_inKQdEP1rT_QkMfv4-19" value="Solicitudes HTTP/HTTPS" style="text;html=1;align=center;verticalAlign=middle;resizable=0;points=[];autosize=1;strokeColor=none;fillColor=none;fontSize=16;" vertex="1" parent="1">
          <mxGeometry x="290" y="517" width="200" height="30" as="geometry" />
        </mxCell>
        <mxCell id="SX_inKQdEP1rT_QkMfv4-21" value="Solicitudes API" style="text;html=1;align=center;verticalAlign=middle;resizable=0;points=[];autosize=1;strokeColor=none;fillColor=none;fontSize=16;" vertex="1" parent="1">
          <mxGeometry x="410" y="441" width="130" height="30" as="geometry" />
        </mxCell>
        <mxCell id="SX_inKQdEP1rT_QkMfv4-22" value="Consultas y&lt;div&gt;transacciones&lt;/div&gt;" style="text;html=1;align=center;verticalAlign=middle;resizable=0;points=[];autosize=1;strokeColor=none;fillColor=none;fontSize=16;" vertex="1" parent="1">
          <mxGeometry x="750" y="450" width="120" height="50" as="geometry" />
        </mxCell>
        <mxCell id="SX_inKQdEP1rT_QkMfv4-23" value="Integración logística" style="text;strokeColor=none;fillColor=none;html=1;align=center;verticalAlign=middle;whiteSpace=wrap;rounded=0;fontSize=16;" vertex="1" parent="1">
          <mxGeometry x="849" y="546" width="60" height="30" as="geometry" />
        </mxCell>
        <mxCell id="SX_inKQdEP1rT_QkMfv4-24" value="Procesos financieros" style="text;strokeColor=none;fillColor=none;html=1;align=center;verticalAlign=middle;whiteSpace=wrap;rounded=0;fontSize=16;" vertex="1" parent="1">
          <mxGeometry x="993" y="487" width="60" height="30" as="geometry" />
        </mxCell>
      </root>
    </mxGraphModel>
  </diagram>
  <diagram name="Page 2" id="ivSAAAtCl8vUHPLcRheh">
    <mxGraphModel dx="1005" dy="1125" grid="1" gridSize="10" guides="1" tooltips="1" connect="1" arrows="1" fold="1" page="1" pageScale="1" pageWidth="1100" pageHeight="850" background="none" math="0" shadow="0">
      <root>
        <mxCell id="54JD2GXGU2Sc1L6fESQX-0" />
        <mxCell id="54JD2GXGU2Sc1L6fESQX-1" parent="54JD2GXGU2Sc1L6fESQX-0" />
        <mxCell id="54JD2GXGU2Sc1L6fESQX-2" value="Aplicación Web" style="verticalAlign=top;align=left;spacingTop=8;spacingLeft=2;spacingRight=12;shape=cube;size=10;direction=south;fontStyle=4;html=1;rounded=0;shadow=0;comic=0;labelBackgroundColor=none;strokeWidth=1;fontFamily=Verdana;fontSize=12" vertex="1" parent="54JD2GXGU2Sc1L6fESQX-1">
          <mxGeometry x="70" y="195" width="200" height="130" as="geometry" />
        </mxCell>
        <mxCell id="54JD2GXGU2Sc1L6fESQX-3" value="Infraestructura en la Nube" style="verticalAlign=top;align=left;spacingTop=8;spacingLeft=2;spacingRight=12;shape=cube;size=10;direction=south;fontStyle=4;html=1;rounded=0;shadow=0;comic=0;labelBackgroundColor=none;strokeWidth=1;fontFamily=Verdana;fontSize=12" vertex="1" parent="54JD2GXGU2Sc1L6fESQX-1">
          <mxGeometry x="540" y="20" width="370" height="550" as="geometry" />
        </mxCell>
        <mxCell id="54JD2GXGU2Sc1L6fESQX-5" value="&amp;laquo;interface&amp;raquo;&lt;br&gt;&lt;b&gt;Name&lt;/b&gt;" style="html=1;rounded=0;shadow=0;comic=0;labelBackgroundColor=none;strokeWidth=1;fontFamily=Verdana;fontSize=12;align=center;" vertex="1" parent="54JD2GXGU2Sc1L6fESQX-1">
          <mxGeometry x="70" y="270" width="70" height="20" as="geometry" />
        </mxCell>
        <mxCell id="54JD2GXGU2Sc1L6fESQX-6" value="Module" style="shape=component;align=left;spacingLeft=36;rounded=0;shadow=0;comic=0;labelBackgroundColor=none;strokeWidth=1;fontFamily=Verdana;fontSize=12;html=1;" vertex="1" parent="54JD2GXGU2Sc1L6fESQX-1">
          <mxGeometry x="190" y="250" width="60" height="30" as="geometry" />
        </mxCell>
        <mxCell id="54JD2GXGU2Sc1L6fESQX-7" value="Module" style="shape=component;align=left;spacingLeft=36;rounded=0;shadow=0;comic=0;labelBackgroundColor=none;strokeWidth=1;fontFamily=Verdana;fontSize=12;html=1;" vertex="1" parent="54JD2GXGU2Sc1L6fESQX-1">
          <mxGeometry x="950" y="760" width="120" height="60" as="geometry" />
        </mxCell>
        <mxCell id="54JD2GXGU2Sc1L6fESQX-8" value="&amp;laquo;interface&amp;raquo;&lt;br&gt;&lt;b&gt;Name&lt;/b&gt;" style="html=1;rounded=0;shadow=0;comic=0;labelBackgroundColor=none;strokeWidth=1;fontFamily=Verdana;fontSize=12;align=center;" vertex="1" parent="54JD2GXGU2Sc1L6fESQX-1">
          <mxGeometry x="955" y="640" width="110" height="50" as="geometry" />
        </mxCell>
        <mxCell id="54JD2GXGU2Sc1L6fESQX-10" style="edgeStyle=orthogonalEdgeStyle;rounded=0;html=1;labelBackgroundColor=none;startArrow=none;startFill=0;startSize=8;endArrow=open;endFill=0;endSize=16;fontFamily=Verdana;fontSize=12;dashed=1;" edge="1" parent="54JD2GXGU2Sc1L6fESQX-1" source="54JD2GXGU2Sc1L6fESQX-6" target="54JD2GXGU2Sc1L6fESQX-5">
          <mxGeometry relative="1" as="geometry">
            <Array as="points">
              <mxPoint x="220" y="230" />
              <mxPoint x="240" y="230" />
              <mxPoint x="240" y="220" />
              <mxPoint x="105" y="220" />
            </Array>
          </mxGeometry>
        </mxCell>
        <mxCell id="54JD2GXGU2Sc1L6fESQX-11" style="edgeStyle=orthogonalEdgeStyle;rounded=0;html=1;dashed=1;labelBackgroundColor=none;startArrow=none;startFill=0;startSize=8;endArrow=open;endFill=0;endSize=16;fontFamily=Verdana;fontSize=12;" edge="1" parent="54JD2GXGU2Sc1L6fESQX-1" source="54JD2GXGU2Sc1L6fESQX-7" target="54JD2GXGU2Sc1L6fESQX-8">
          <mxGeometry relative="1" as="geometry" />
        </mxCell>
        <mxCell id="54JD2GXGU2Sc1L6fESQX-14" value="Seguridad" style="verticalAlign=top;align=left;spacingTop=8;spacingLeft=2;spacingRight=12;shape=cube;size=10;direction=south;fontStyle=4;html=1;rounded=0;shadow=0;comic=0;labelBackgroundColor=none;strokeWidth=1;fontFamily=Verdana;fontSize=12" vertex="1" parent="54JD2GXGU2Sc1L6fESQX-1">
          <mxGeometry x="600" y="100" width="260" height="105" as="geometry" />
        </mxCell>
        <mxCell id="54JD2GXGU2Sc1L6fESQX-15" value="Balanceador de Carga" style="verticalAlign=top;align=left;spacingTop=8;spacingLeft=2;spacingRight=12;shape=cube;size=10;direction=south;fontStyle=4;html=1;rounded=0;shadow=0;comic=0;labelBackgroundColor=none;strokeWidth=1;fontFamily=Verdana;fontSize=12" vertex="1" parent="54JD2GXGU2Sc1L6fESQX-1">
          <mxGeometry x="595" y="270" width="260" height="105" as="geometry" />
        </mxCell>
        <mxCell id="54JD2GXGU2Sc1L6fESQX-16" value="Servidores de Aplicación" style="verticalAlign=top;align=left;spacingTop=8;spacingLeft=2;spacingRight=12;shape=cube;size=10;direction=south;fontStyle=4;html=1;rounded=0;shadow=0;comic=0;labelBackgroundColor=none;strokeWidth=1;fontFamily=Verdana;fontSize=12" vertex="1" parent="54JD2GXGU2Sc1L6fESQX-1">
          <mxGeometry x="140" y="410" width="260" height="105" as="geometry" />
        </mxCell>
        <mxCell id="54JD2GXGU2Sc1L6fESQX-17" value="Base de Datos" style="verticalAlign=top;align=left;spacingTop=8;spacingLeft=2;spacingRight=12;shape=cube;size=10;direction=south;fontStyle=4;html=1;rounded=0;shadow=0;comic=0;labelBackgroundColor=none;strokeWidth=1;fontFamily=Verdana;fontSize=12" vertex="1" parent="54JD2GXGU2Sc1L6fESQX-1">
          <mxGeometry x="110" y="645" width="200" height="95" as="geometry" />
        </mxCell>
        <mxCell id="54JD2GXGU2Sc1L6fESQX-18" value="Servicios Externos" style="verticalAlign=top;align=left;spacingTop=8;spacingLeft=2;spacingRight=12;shape=cube;size=10;direction=south;fontStyle=4;html=1;rounded=0;shadow=0;comic=0;labelBackgroundColor=none;strokeWidth=1;fontFamily=Verdana;fontSize=12" vertex="1" parent="54JD2GXGU2Sc1L6fESQX-1">
          <mxGeometry x="400" y="640" width="270" height="100" as="geometry" />
        </mxCell>
        <mxCell id="1JxPcLxhm_qkYxwaHhXT-1" value="" style="edgeStyle=none;curved=1;rounded=0;orthogonalLoop=1;jettySize=auto;html=1;fontSize=12;startSize=8;endSize=8;" edge="1" parent="54JD2GXGU2Sc1L6fESQX-1" source="1JxPcLxhm_qkYxwaHhXT-0" target="54JD2GXGU2Sc1L6fESQX-2">
          <mxGeometry relative="1" as="geometry" />
        </mxCell>
        <mxCell id="1JxPcLxhm_qkYxwaHhXT-0" value="UsuarioFinal" style="shape=umlActor;verticalLabelPosition=bottom;verticalAlign=top;html=1;outlineConnect=0;" vertex="1" parent="54JD2GXGU2Sc1L6fESQX-1">
          <mxGeometry x="60" y="20" width="60" height="105" as="geometry" />
        </mxCell>
        <mxCell id="1JxPcLxhm_qkYxwaHhXT-2" value="Aplicación Móvil" style="verticalAlign=top;align=left;spacingTop=8;spacingLeft=2;spacingRight=12;shape=cube;size=10;direction=south;fontStyle=4;html=1;rounded=0;shadow=0;comic=0;labelBackgroundColor=none;strokeWidth=1;fontFamily=Verdana;fontSize=12" vertex="1" parent="54JD2GXGU2Sc1L6fESQX-1">
          <mxGeometry x="310" y="200" width="200" height="130" as="geometry" />
        </mxCell>
        <mxCell id="1JxPcLxhm_qkYxwaHhXT-3" value="&lt;div&gt;&lt;br&gt;&lt;/div&gt;Almacenamiento" style="verticalAlign=top;align=left;spacingTop=8;spacingLeft=2;spacingRight=12;shape=cube;size=10;direction=south;fontStyle=4;html=1;rounded=0;shadow=0;comic=0;labelBackgroundColor=none;strokeWidth=1;fontFamily=Verdana;fontSize=12" vertex="1" parent="54JD2GXGU2Sc1L6fESQX-1">
          <mxGeometry x="590" y="425" width="260" height="105" as="geometry" />
        </mxCell>
        <mxCell id="1JxPcLxhm_qkYxwaHhXT-4" style="edgeStyle=none;curved=1;rounded=0;orthogonalLoop=1;jettySize=auto;html=1;exitX=0;exitY=0;exitDx=105;exitDy=135;exitPerimeter=0;fontSize=12;startSize=8;endSize=8;" edge="1" parent="54JD2GXGU2Sc1L6fESQX-1" source="54JD2GXGU2Sc1L6fESQX-17" target="54JD2GXGU2Sc1L6fESQX-17">
          <mxGeometry relative="1" as="geometry" />
        </mxCell>
      </root>
    </mxGraphModel>
  </diagram>
</mxfile>
